Coordinates
version=1
nRows=30
nColumns=23
inDegrees=yes

Units are S.I. units (second, meters, Newtons, ...)
If the header above contains a line with 'inDegrees', this indicates whether rotational values are in degrees (yes) or radians (no).

endheader
time	pelvis_tilt	pelvis_list	pelvis_rotation	pelvis_tx	pelvis_ty	pelvis_tz	hip_flexion_r	hip_adduction_r	hip_rotation_r	knee_angle_r	knee_angle_r_beta	ankle_angle_r	subtalar_angle_r	mtp_angle_r	hip_flexion_l	hip_adduction_l	hip_rotation_l	knee_angle_l	knee_angle_l_beta	ankle_angle_l	subtalar_angle_l	mtp_angle_l
      7.50000000	     -0.49826094	      7.49235407	     -3.95870134	      2.23425715	      1.03223603	      1.03326175	    -14.22154604	     -9.11512261	     -0.24784246	     66.51870706	      1.16097045	    -20.67677343	    -26.13926693	      0.00000000	     31.24832694	      8.01271581	     -6.53373951	     26.78746259	      0.46752942	      1.26515316	      2.60985357	      0.00000000
      7.50666667	     -0.01601789	      7.66316887	     -3.75013383	      2.23454767	      1.02775770	      1.03377014	    -13.51006378	     -9.02997763	     -0.10982971	     69.98747849	      1.22151193	    -19.93423323	    -26.51321745	      0.00000000	     30.46318646	      8.24667191	     -6.97495743	     28.07059753	      0.48992435	      1.37135671	      1.70762016	      0.00000000
      7.51333333	      0.46090481	      7.89519293	     -3.48319152	      2.23474655	      1.02291147	      1.03418476	    -12.77110628	     -8.97795046	     -0.02856337	     73.41681564	      1.28136516	    -19.14820767	    -26.80036676	      0.00000000	     29.69890453	      8.59195858	     -7.27487593	     29.55826924	      0.51588912	      1.63481678	      0.69377123	      0.00000000
      7.52000000	      0.51640891	      8.07235278	     -3.16251557	      2.23465392	      1.01741075	      1.03444391	    -11.44287227	     -8.91071031	      0.00534295	     76.92269586	      1.34255431	    -18.21078756	    -26.73000812	      0.00000000	     29.39767887	      8.95617394	     -7.20419287	     31.20370248	      0.54460735	      2.04102603	     -0.76431709	      0.00000000
      7.52666667	      0.65299431	      8.31686671	     -2.79610397	      2.23439666	      1.01187834	      1.03459761	    -10.17539185	     -8.92956381	     -0.04056426	     80.32808912	      1.40198964	    -17.36434061	    -26.70464589	      0.00000000	     29.03912554	      9.46359273	     -7.00409193	     33.05627871	      0.57694090	      2.83402175	     -2.16564888	      0.00000000
      7.53333333	      0.64641915	      8.57520414	     -2.38819741	      2.23386422	      1.00610274	      1.03461773	     -8.66602216	     -9.00864116	     -0.13623092	     83.70815693	      1.46098295	    -16.50295328	    -26.59705985	      0.00000000	     28.87493779	     10.04061689	     -6.68790091	     35.11612935	      0.61289208	      4.02702910	     -3.53512599	      0.00000000
      7.54000000	      0.55151229	      8.85992324	     -1.95605461	      2.23304352	      1.00022400	      1.03452589	     -6.97817134	     -9.15726653	     -0.24319036	     87.03399675	      1.51902980	    -15.69369259	    -26.42400911	      0.00000000	     28.84219629	     10.69563854	     -6.30162635	     37.34444379	      0.65178350	      5.55506338	     -4.74986672	      0.00000000
      7.54666667	      0.26450669	      9.09473485	     -1.50581158	      2.23190392	      0.99423215	      1.03431472	     -4.95461572	     -9.37138195	     -0.40355697	     90.32967996	      1.57655033	    -14.85530570	    -26.17984083	      0.00000000	     29.02217126	     11.33716699	     -5.84899712	     39.67834055	      0.69251768	      7.36604497	     -5.91055915	      0.00000000
      7.55333333	     -0.09294535	      9.34846951	     -1.04754809	      2.23045631	      0.98831074	      1.03404874	     -2.75205196	     -9.63062383	     -0.50251855	     93.54986912	      1.63275323	    -14.05917058	    -25.90243632	      0.00000000	     29.26567282	     12.02765322	     -5.35544003	     42.03857857	      0.73371161	      9.36469148	     -6.87596356	      0.00000000
      7.56000000	     -0.23907120	      9.67959600	     -0.63686133	      2.22884704	      0.98308745	      1.03378236	     -0.71373611	    -10.02592026	     -0.55808586	     96.56161150	      1.68531805	    -13.43924317	    -25.78710963	      0.00000000	     29.15902584	     12.84387822	     -4.81129865	     44.20623560	      0.77154436	     11.56688838	     -7.59678807	      0.00000000
      7.56666667	     -0.45105042	      9.93349801	     -0.20103079	      2.22696807	      0.97803352	      1.03346585	      1.49976678	    -10.43762838	     -0.64230741	     99.46135131	      1.73592806	    -12.78737766	    -25.63315801	      0.00000000	     29.05703077	     13.54974131	     -4.28402624	     46.30602237	      0.80819255	     13.64040565	     -8.21851144	      0.00000000
      7.57333333	     -1.39382570	      9.97448704	      0.34999538	      2.22454929	      0.97255525	      1.03294849	      4.73040263	    -10.63159597	     -0.63152693	    102.35743115	      1.78647419	    -11.94941452	    -24.99394189	      0.00000000	     29.66279307	     14.08068523	     -3.54813409	     48.26251360	      0.84233977	     15.46119776	     -8.60169427	      0.00000000
      7.58000000	     -1.79369381	     10.10245762	      0.84247431	      2.22214284	      0.96834183	      1.03257317	      7.37670406	    -10.93801801	     -0.60077592	    104.90422466	      1.83092412	    -11.31605399	    -24.71209364	      0.00000000	     29.44860690	     14.69298253	     -2.79701959	     49.83516743	      0.86978775	     17.33827997	     -8.82894151	      0.00000000
      7.58666667	     -2.10829815	     10.16682062	      1.32869286	      2.21955743	      0.96479863	      1.03227735	     10.01230685	    -11.18416525	     -0.53250139	    107.20044951	      1.87100080	    -10.71724376	    -24.42946725	      0.00000000	     28.95729901	     15.20703360	     -2.00439026	     51.10412051	      0.89193516	     19.09108624	     -8.88891666	      0.00000000
      7.59333333	     -2.36804360	     10.14040060	      1.77697819	      2.21684437	      0.96190932	      1.03211094	     12.68108536	    -11.29427591	     -0.38427611	    109.23508851	      1.90651195	    -10.08510376	    -24.12658067	      0.00000000	     28.22499218	     15.54717416	     -1.24053974	     52.07659777	      0.90890809	     20.71921712	     -8.77173963	      0.00000000
      7.60000000	     -2.54563526	     10.03808650	      2.18345715	      2.21406025	      0.95974785	      1.03205546	     15.32360628	    -11.29415458	     -0.18497855	    110.96851661	      1.93676598	     -9.47279021	    -23.82602557	      0.00000000	     27.21891839	     15.72354274	     -0.51868099	     52.73436960	      0.92038838	     22.20996756	     -8.46470438	      0.00000000
      7.60666667	     -2.28342189	      9.87104687	      2.43869694	      2.21143484	      0.95894013	      1.03231291	     17.48648472	    -11.12249096	      0.08408424	    112.28047530	      1.95966398	     -9.06483290	    -23.79832731	      0.00000000	     25.49098461	     15.72781699	      0.18708318	     52.94457202	      0.92405710	     23.22350983	     -8.31039892	      0.00000000
      7.61333333	     -2.73226163	      9.59723422	      2.74407053	      2.20854358	      0.95740742	      1.03240156	     20.57560588	    -10.89360225	      0.42355219	    113.50208910	      1.98098516	     -8.19541947	    -23.10991306	      0.00000000	     24.56018869	     15.44256113	      0.50587521	     53.20068300	      0.92852708	     24.75020025	     -7.33720515	      0.00000000
      7.62000000	     -2.55509763	      9.28602783	      2.92337444	      2.20610722	      0.95773581	      1.03267626	     22.84618610	    -10.50760396	      0.73565783	    114.16018650	      1.99247113	     -7.82710747	    -23.03698094	      0.00000000	     22.61806085	     15.14590648	      1.08777163	     52.83204379	      0.92209311	     25.39686362	     -7.05592339	      0.00000000
      7.62666667	     -2.74747137	      8.90246306	      2.84492050	      2.20360225	      0.95771034	      1.03323457	     25.66687883	     -9.92095053	      1.32568379	    114.67654003	      2.00148320	     -6.87871261	    -22.25341172	      0.00000000	     21.15962079	     14.39233088	      0.82040097	     52.53091266	      0.91683739	     26.64748429	     -5.50659129	      0.00000000
      7.63333333	     -2.68156299	      8.45154143	      2.75920800	      2.20146978	      0.95885613	      1.03372146	     28.04153972	     -9.21239014	      1.78993003	    114.71628113	      2.00217681	     -6.28050252	    -21.88196025	      0.00000000	     19.19607273	     13.62766574	      0.76958499	     51.80236603	      0.90412185	     27.32417865	     -4.31971536	      0.00000000
      7.64000000	     -2.66624609	      7.99238206	      2.55936874	      2.19957492	      0.96049536	      1.03414088	     30.40175666	     -8.42661112	      2.31777348	    114.42149362	      1.99703180	     -5.66327261	    -21.52140978	      0.00000000	     17.16848194	     12.90249011	      0.76584742	     50.78101185	      0.88629585	     27.68450636	     -3.65855195	      0.00000000
      7.64666667	     -2.61902659	      7.45395898	      2.34264042	      2.19800949	      0.96272280	      1.03451516	     32.57744126	     -7.53312219	      2.73391131	    113.76609554	      1.98559294	     -5.00516816	    -21.03546460	      0.00000000	     15.02189971	     11.99412256	      0.54116723	     49.58642184	      0.86544633	     27.97881997	     -2.18483626	      0.00000000
      7.65333333	     -2.62633520	      6.90204697	      2.06598841	      2.19674603	      0.96543174	      1.03476533	     34.67241078	     -6.58331004	      3.14532948	    112.76874440	      1.96818588	     -4.39855705	    -20.65448484	      0.00000000	     12.83177985	     11.17575343	      0.45382748	     48.13172616	      0.84005710	     27.97507563	     -1.29007516	      0.00000000
      7.66000000	     -2.66399130	      6.28295577	      1.77081602	      2.19579812	      0.96862897	      1.03491974	     36.62959469	     -5.54044191	      3.46982756	    111.43287564	      1.94487057	     -3.77792557	    -20.32624056	      0.00000000	     10.60435304	     10.32913466	      0.39830985	     46.49957794	      0.81157074	     27.77060910	     -0.41679809	      0.00000000
      7.66666667	     -2.81533812	      5.62089275	      1.45843716	      2.19515445	      0.97216082	      1.03500451	     38.53994863	     -4.43615283	      3.72832567	    109.78648865	      1.91613570	     -3.17329916	    -20.08151108	      0.00000000	      8.44721495	      9.49499664	      0.38207883	     44.70067617	      0.78017398	     27.21770266	      0.20429315	      0.00000000
      7.67333333	     -2.93672138	      4.90593273	      1.18923899	      2.19490697	      0.97620978	      1.03496836	     40.19450424	     -3.33935801	      3.83133441	    107.80944766	      1.88162983	     -2.58254863	    -19.95211883	      0.00000000	      6.19947372	      8.64585125	      0.42017673	     42.73883576	      0.74593340	     26.31449526	      0.86587635	      0.00000000
      7.68000000	     -3.09861164	      4.14415635	      0.90023308	      2.19498586	      0.98063717	      1.03491181	     41.70582302	     -2.19849515	      3.86294882	    105.53425263	      1.84192018	     -2.02944578	    -19.95468867	      0.00000000	      3.96808843	      7.78184864	      0.44805944	     40.63694712	      0.70924853	     24.92920497	      1.34933264	      0.00000000
      7.68666667	     -3.42092675	      3.35313321	      0.64194629	      2.19536151	      0.98521948	      1.03482525	     43.21561658	     -1.09516402	      3.77703511	    102.99845426	      1.79766215	     -1.50841900	    -20.07125868	      0.00000000	      1.90973682	      6.89630996	      0.42305377	     38.44193335	      0.67093831	     23.00961945	      1.72113292	      0.00000000
      7.69333333	     -3.52492586	      2.51334514	      0.37955589	      2.19615520	      0.99045488	      1.03465458	     44.25247062	      0.00670603	      3.60824947	    100.15001940	      1.74794758	     -1.10808925	    -20.46769182	      0.00000000	     -0.43506579	      6.03194963	      0.51614566	     36.06427492	      0.62944034	     20.72859030	      1.79326895	      0.00000000
